<svg width="1214" height="1200" viewBox="0 0 1214 1200" fill="none" xmlns="http://www.w3.org/2000/svg">
<rect width="1213.83" height="1200" fill="#0B0B0B"/>
<g filter="url(#filter0_d_2_8)">
<path d="M249.527 304.84C269.579 305.751 286.669 306.435 300.797 306.891C314.924 307.346 326.546 307.802 335.66 308.258C346.598 308.714 355.484 309.169 362.32 309.625C369.612 310.081 378.727 310.309 389.664 310.309C408.349 310.309 434.781 308.941 468.961 306.207C461.669 309.853 455.973 313.954 451.871 318.512C447.77 322.613 444.579 326.715 442.301 330.816C439.566 335.829 437.516 340.615 436.148 345.172C435.237 350.641 437.288 359.072 442.301 370.465C445.947 380.035 452.555 393.023 462.125 409.43C471.695 425.836 485.823 447.027 504.508 473.004C526.839 440.191 544.156 414.443 556.461 395.758C568.766 377.073 577.88 362.945 583.805 353.375C590.641 341.982 594.742 334.462 596.109 330.816C595.654 328.538 593.831 325.348 590.641 321.246C587.906 317.6 583.349 313.271 576.969 308.258C571.044 302.789 562.158 296.181 550.309 288.434C568.993 291.168 584.488 293.219 596.793 294.586C609.553 295.953 619.807 296.865 627.555 297.32C636.669 297.776 644.189 297.776 650.113 297.32C656.038 296.865 664.697 296.409 676.09 295.953C685.66 295.497 698.421 295.042 714.371 294.586C730.777 294.13 751.741 293.447 777.262 292.535C767.236 297.548 758.577 302.333 751.285 306.891C743.993 311.448 737.841 315.549 732.828 319.195C726.904 323.753 721.663 327.626 717.105 330.816C711.637 336.285 701.611 347.451 687.027 364.312C674.723 378.896 657.177 400.315 634.391 428.57C611.604 456.37 581.07 494.195 542.789 542.047C573.779 574.859 598.844 600.836 617.984 619.977C637.125 639.117 652.164 653.701 663.102 663.727C675.862 675.576 685.204 683.551 691.129 687.652C696.598 690.842 704.117 694.944 713.688 699.957C721.891 704.514 732.6 710.211 745.816 717.047C759.033 723.427 775.895 731.174 796.402 740.289H682.242C672.672 740.289 661.051 740.745 647.379 741.656C635.53 742.568 620.947 743.479 603.629 744.391C586.311 745.302 566.031 746.897 542.789 749.176C550.992 744.163 556.917 739.378 560.562 734.82C564.664 729.807 567.398 725.478 568.766 721.832C570.589 717.73 570.816 714.085 569.449 710.895C567.171 706.337 563.297 699.501 557.828 690.387C552.815 682.639 545.751 671.702 536.637 657.574C527.522 643.447 514.99 624.762 499.039 601.52C480.81 621.116 466.682 637.522 456.656 650.738C447.086 663.499 439.794 673.753 434.781 681.5C429.312 690.615 425.667 697.906 423.844 703.375C423.844 708.388 424.983 713.401 427.262 718.414C429.54 722.971 433.186 727.984 438.199 733.453C443.668 738.922 451.643 744.163 462.125 749.176L259.781 758.062C276.188 746.669 289.859 736.415 300.797 727.301C311.734 717.73 320.621 709.755 327.457 703.375C335.204 695.628 341.357 688.792 345.914 682.867C350.471 676.031 357.535 666.005 367.105 652.789C374.853 641.396 385.562 626.129 399.234 606.988C413.362 587.848 431.363 563.238 453.238 533.16C429.085 494.423 409.488 463.661 394.449 440.875C379.866 418.089 368.017 400.543 358.902 388.238C348.421 374.111 340.673 364.312 335.66 358.844C331.103 354.742 324.723 350.185 316.52 345.172C309.684 340.615 300.797 335.146 289.859 328.766C278.922 321.93 265.478 313.954 249.527 304.84Z" fill="white"/>
</g>
<g filter="url(#filter1_d_2_8)">
<path d="M392.9 891.85V904H335.9V802H391.4V814.3H348.95V846.25H386.9V858.55H348.95V891.85H392.9ZM415.588 904V802H429.238C438.338 815 446.688 828.1 454.288 841.3C461.988 854.4 469.188 868.1 475.888 882.4L474.388 843.4V802H487.138V904H473.488C466.488 889.4 459.238 875.2 451.738 861.4C444.338 847.5 436.238 833.95 427.438 820.75L428.338 862.3V904H415.588ZM588.602 841.75V864.1C588.602 876.8 585.402 886.9 579.002 894.4C572.702 901.8 563.602 905.5 551.702 905.5C539.802 905.5 530.652 901.8 524.252 894.4C517.952 886.9 514.802 876.8 514.802 864.1V841.75C514.802 829.15 517.952 819.15 524.252 811.75C530.652 804.25 539.802 800.5 551.702 800.5C563.602 800.5 572.702 804.25 579.002 811.75C585.402 819.15 588.602 829.15 588.602 841.75ZM575.102 841.75C575.102 832.45 573.102 825.3 569.102 820.3C565.202 815.2 559.402 812.65 551.702 812.65C544.102 812.65 538.302 815.2 534.302 820.3C530.302 825.3 528.302 832.45 528.302 841.75V864.1C528.302 873.5 530.302 880.75 534.302 885.85C538.302 890.95 544.102 893.5 551.702 893.5C559.402 893.5 565.202 890.95 569.102 885.85C573.102 880.75 575.102 873.5 575.102 864.1V841.75ZM616.271 904V802H648.071C657.871 802 665.321 804.6 670.421 809.8C675.621 814.9 678.221 821.75 678.221 830.35V838.3C678.221 846.9 675.621 853.8 670.421 859C665.321 864.2 657.871 866.8 648.071 866.8H629.321V904H616.271ZM648.071 814.3H629.321V854.65H648.071C653.471 854.65 657.571 853.2 660.371 850.3C663.271 847.4 664.721 843.4 664.721 838.3V830.35C664.721 825.35 663.271 821.45 660.371 818.65C657.571 815.75 653.471 814.3 648.071 814.3ZM757.939 891.85V904H700.939V802H756.439V814.3H713.989V846.25H751.939V858.55H713.989V891.85H757.939ZM780.627 904V802H812.277C823.977 802 832.977 805.55 839.277 812.65C845.577 819.65 848.727 829.35 848.727 841.75V864.1C848.727 876.6 845.577 886.4 839.277 893.5C832.977 900.5 823.977 904 812.277 904H780.627ZM811.977 814.3H793.677V891.85H811.977C827.477 891.85 835.227 882.6 835.227 864.1V841.75C835.227 823.45 827.477 814.3 811.977 814.3ZM889.184 904H876.134V802H889.184V904ZM975.105 904L967.455 880.3H928.755L921.105 904H908.355L942.255 802H954.555L988.605 904H975.105ZM938.205 850.9L932.505 868.45H963.555L957.855 850.9L948.105 819.4L938.205 850.9Z" fill="white"/>
</g>
<path d="M1017.17 451.693C988.249 453.329 930.764 459.284 895.276 480.936C892.827 482.43 891.439 485.086 891.439 487.864V679.274C891.439 685.35 898.105 689.19 903.726 686.371C940.238 668.054 993.042 663.056 1019.15 661.689C1028.07 661.221 1034.99 654.098 1034.99 645.56V467.842C1035 458.526 1026.89 451.146 1017.17 451.693ZM870.719 480.936C835.236 459.284 777.751 453.334 748.828 451.693C739.107 451.146 731 458.526 731 467.842V645.566C731 654.109 737.93 661.231 746.844 661.694C772.964 663.062 825.794 668.064 862.306 686.392C867.911 689.206 874.556 685.371 874.556 679.311V487.769C874.556 484.986 873.173 482.435 870.719 480.936Z" fill="white"/>
<defs>
<filter id="filter0_d_2_8" x="245.527" y="288.434" width="554.875" height="477.629" filterUnits="userSpaceOnUse" color-interpolation-filters="sRGB">
<feFlood flood-opacity="0" result="BackgroundImageFix"/>
<feColorMatrix in="SourceAlpha" type="matrix" values="0 0 0 0 0 0 0 0 0 0 0 0 0 0 0 0 0 0 127 0" result="hardAlpha"/>
<feOffset dy="4"/>
<feGaussianBlur stdDeviation="2"/>
<feComposite in2="hardAlpha" operator="out"/>
<feColorMatrix type="matrix" values="0 0 0 0 0 0 0 0 0 0 0 0 0 0 0 0 0 0 0.25 0"/>
<feBlend mode="normal" in2="BackgroundImageFix" result="effect1_dropShadow_2_8"/>
<feBlend mode="normal" in="SourceGraphic" in2="effect1_dropShadow_2_8" result="shape"/>
</filter>
<filter id="filter1_d_2_8" x="331.9" y="800.5" width="660.705" height="113" filterUnits="userSpaceOnUse" color-interpolation-filters="sRGB">
<feFlood flood-opacity="0" result="BackgroundImageFix"/>
<feColorMatrix in="SourceAlpha" type="matrix" values="0 0 0 0 0 0 0 0 0 0 0 0 0 0 0 0 0 0 127 0" result="hardAlpha"/>
<feOffset dy="4"/>
<feGaussianBlur stdDeviation="2"/>
<feComposite in2="hardAlpha" operator="out"/>
<feColorMatrix type="matrix" values="0 0 0 0 0 0 0 0 0 0 0 0 0 0 0 0 0 0 0.25 0"/>
<feBlend mode="normal" in2="BackgroundImageFix" result="effect1_dropShadow_2_8"/>
<feBlend mode="normal" in="SourceGraphic" in2="effect1_dropShadow_2_8" result="shape"/>
</filter>
</defs>
</svg>
